<mxfile host="app.diagrams.net" modified="2023-12-04T19:48:12.228Z" agent="Mozilla/5.0 (X11; Linux x86_64; rv:121.0) Gecko/20100101 Firefox/121.0" version="22.1.5" etag="F5yxXT3ualzDxRYlN_Oj" type="github">
  <diagram name="Page-1" id="1mxa4X6SrvS2F-EuXRFJ">
    <mxGraphModel>
      <root>
        <mxCell id="0" />
        <mxCell id="1" parent="0" />
      </root>
    </mxGraphModel>
  </diagram>
</mxfile>
